<?xml version="1.0" encoding="UTF-8" standalone="no"?>
<!-- Created with Inkscape (http://www.inkscape.org/) -->

<svg
   version="1.1"
   id="svg18"
   width="250.78716"
   height="134.99796"
   viewBox="0 0 250.78715 134.99795"
   sodipodi:docname="229119-P2319Q-42.eps"
   xmlns:inkscape="http://www.inkscape.org/namespaces/inkscape"
   xmlns:sodipodi="http://sodipodi.sourceforge.net/DTD/sodipodi-0.dtd"
   xmlns="http://www.w3.org/2000/svg"
   xmlns:svg="http://www.w3.org/2000/svg">
  <defs
     id="defs22">
    <clipPath
       clipPathUnits="userSpaceOnUse"
       id="clipPath56-3">
      <path
         d="m 1720.37,4031.27 c -72.19,25 -446.91,144.87 -694.48,-226.96 -247.531,-371.85 153.45,-239.32 153.45,-239.32 l 170.87,6.51 c 0,0 -5.7,212.6 144.22,308.44 149.88,95.84 242.85,105.86 242.85,105.86 l -16.91,45.47"
         id="path54-6" />
    </clipPath>
    <clipPath
       clipPathUnits="userSpaceOnUse"
       id="clipPath72-7">
      <path
         d="m 179.727,3990.13 c 83.925,55.76 246.933,134.01 458.968,63.96 212.051,-70.06 367.085,-388.04 367.085,-388.04 l -45.565,-79.64 -301.547,-24.13 c 0,0 28.617,178.86 -158.414,294.96 -187.031,116.09 -305.805,91.54 -305.805,91.54 l -14.722,41.35"
         id="path70-5" />
    </clipPath>
    <clipPath
       clipPathUnits="userSpaceOnUse"
       id="clipPath88-3">
      <path
         d="m 1441.83,4345.11 c -82.3,9.37 -385.56,45.37 -533.068,-195.79 -147.5,-241.16 -83.449,-573.7 -83.449,-573.7 l 360.307,14.59 c 0,0 -51.56,334.53 4.52,480.41 79.92,207.99 245.72,233.54 245.72,233.54 l 5.97,40.95"
         id="path86-5" />
    </clipPath>
    <clipPath
       clipPathUnits="userSpaceOnUse"
       id="clipPath118-6">
      <path
         d="m 1680.37,4071.27 c -72.19,25 -446.91,144.87 -694.483,-226.96 -247.528,-371.85 153.453,-239.32 153.453,-239.32 l 170.88,6.51 c 0,0 -5.71,212.6 144.21,308.44 149.88,95.84 242.85,105.86 242.85,105.86 l -16.91,45.47"
         id="path116-2" />
    </clipPath>
    <clipPath
       clipPathUnits="userSpaceOnUse"
       id="clipPath134-9">
      <path
         d="m 139.727,4030.13 c 83.925,55.76 246.933,134.02 458.968,63.96 212.051,-70.06 367.086,-388.04 367.086,-388.04 l -45.566,-79.64 -301.547,-24.13 c 0,0 28.617,178.86 -158.414,294.96 -187.031,116.09 -305.805,91.53 -305.805,91.53 l -14.722,41.36"
         id="path132-1" />
    </clipPath>
    <clipPath
       clipPathUnits="userSpaceOnUse"
       id="clipPath150-2">
      <path
         d="m 1401.83,4385.11 c -82.3,9.37 -385.56,45.37 -533.068,-195.79 -147.504,-241.16 -83.449,-573.7 -83.449,-573.7 l 360.307,14.59 c 0,0 -51.56,334.53 4.52,480.41 79.92,207.99 245.72,233.54 245.72,233.54 l 5.97,40.95"
         id="path148-7" />
    </clipPath>
  </defs>
  <sodipodi:namedview
     id="namedview20"
     pagecolor="#ffffff"
     bordercolor="#999999"
     borderopacity="1"
     inkscape:showpageshadow="0"
     inkscape:pageopacity="0"
     inkscape:pagecheckerboard="0"
     inkscape:deskcolor="#d1d1d1"
     showgrid="false" />
  <g
     id="g26"
     inkscape:groupmode="layer"
     inkscape:label="Page 1"
     transform="matrix(1.3333333,0,0,-1.3333333,-97.467911,495.02914)">
    <g
       id="g28"
       transform="scale(0.1)">
      <path
         d="m 2085.0098,2872.114 c -48.83,12.43 -109.8,21.59 -176.75,27.11 -8,70.73 -17.88,187.29 -10.89,288.09 v 0 c 0.38,5.44 0.8,10.82 1.28,16.16 111.18,85.8 230.36,110.17 330.49,110.17 97.03,0 176.16,-22.91 212.68,-35.02 -9.61,-17.6 -12.86,-37.56 -10,-56.7 -26.13,-7.29 -65.56,-20.94 -115.81,-46.12 -34.19,45.01 -34.96,97.73 -25.57,134.86 -19.39,1.86 -39.9,2.98 -61.3,2.98 -0.59,0 -1.18,-0.01 -1.78,-0.01 -10.03,-51.63 -3.34,-114.11 33.71,-167.74 -11.48,-6.73 -23.37,-14 -35.63,-21.84 -10,-6.4 -19.31,-13.31 -27.98,-20.65 -39.5,59.33 -44.8,151.31 -40.47,205.87 -20.52,-2.53 -41.5,-6.26 -62.77,-11.44 -3.17,-71.09 8.39,-172.43 60.17,-240.6 -11.94,-16.11 -21.93,-33.03 -30.29,-50.15 -76.06,60.88 -107.87,188.8 -116.98,261.17 -19.36,-8.57 -38.72,-18.56 -57.97,-30.19 13.01,-79.88 50,-223.95 151.6,-291.27 -8.19,-27.44 -12.96,-53.29 -15.74,-74.68"
         style="fill:#e8e7e6;fill-opacity:1;fill-rule:nonzero;stroke:none"
         id="path48"
         inkscape:export-filename="path48.svg"
         inkscape:export-xdpi="96"
         inkscape:export-ydpi="96" />
      <g
         id="g50"
         transform="translate(731.00978,-755.88598)">
        <g
           id="g52"
           clip-path="url(#clipPath56-3)">
          <path
             d="m 1530.06,3901.78 v 0 c -37.05,53.63 -43.74,116.11 -33.71,167.74 0.6,0 1.19,0.01 1.78,0.01 21.4,0 41.91,-1.12 61.3,-2.98 -9.39,-37.13 -8.62,-89.85 25.57,-134.86 v 0 c -17.1,-8.57 -35.43,-18.47 -54.94,-29.91"
             style="fill:#e8e7e6;fill-opacity:1;fill-rule:nonzero;stroke:none"
             id="path58" />
          <path
             d="m 1423.38,3813.12 v 0 c -51.78,68.17 -63.34,169.51 -60.17,240.6 21.27,5.18 42.25,8.91 62.77,11.44 -4.33,-54.56 0.97,-146.54 40.47,-205.87 v 0 c -16.61,-14.07 -30.86,-29.69 -43.07,-46.17"
             style="fill:#e8e7e6;fill-opacity:1;fill-rule:nonzero;stroke:none"
             id="path60" />
          <path
             d="m 1369.74,3702.68 v 0 c -101.6,67.32 -138.59,211.39 -151.6,291.27 19.25,11.63 38.61,21.62 57.97,30.19 9.11,-72.37 40.92,-200.29 116.98,-261.17 v 0 c -9.88,-20.2 -17.49,-40.65 -23.35,-60.29"
             style="fill:#e8e7e6;fill-opacity:1;fill-rule:nonzero;stroke:none"
             id="path62" />
        </g>
      </g>
      <path
         d="m 1389.3108,2865.494 c -3.824,32.91 -14.418,76.1 -41.039,120.44 43.125,28.91 85.457,71.89 116.14,120.56 22.907,36.32 37.641,73.17 43.871,108.76 -18.746,16.18 -38.375,31.11 -58.742,44.15 2.094,-47.95 -21.32,-93.91 -37.648,-119.8 -28.492,-45.18 -66.16,-81.37 -100.707,-103.93 -15.203,16.73 -33.246,33.12 -54.621,48.67 40.164,54.22 75.648,140.74 75.879,224.81 -21.375,5.5 -42.192,9.51 -62.438,12.23 3.609,-75.95 -32.125,-160.46 -65.476,-204.11 -23.747,13.54 -46.282,24.79 -67.457,34.11 17.8,20.72 33.882,46.25 43.285,75.54 10.367,32.31 11.445,65.72 3.41,98.63 -21.762,-0.83 -42.653,-3.07 -62.61,-6.41 7.762,-24.64 7.801,-49.17 0.071,-73.25 -9.617,-29.98 -29.321,-54.33 -47.356,-70.74 -52.656,16.33 -93.01502,19.91 -118.26102,19.91 -1.43,0 -2.821,-0.02 -4.157,-0.04 -2.355,19.06 -10.718,36.6 -23.386,50.32 61.433,37.85 155.77302,80.57 274.64002,80.57 51.321,0 107.207,-7.96 166.996,-27.71 70.02,-23.14 133.817,-73.29 187.875,-130.12 -19.511,-107.16 -16.535,-208.63 -10.757,-274.12 -56.774,-6.53 -110.442,-15.94 -157.512,-28.47"
         style="fill:#e8e7e6;fill-opacity:1;fill-rule:nonzero;stroke:none"
         id="path64" />
      <g
         id="g66"
         transform="translate(731.00978,-755.88598)">
        <g
           id="g68"
           clip-path="url(#clipPath72-7)">
          <path
             d="m 406.063,3907.27 c -22.653,9.97 -43.762,17.73 -63.2,23.77 v 0 c 18.035,16.41 37.739,40.76 47.356,70.74 7.73,24.08 7.691,48.61 -0.071,73.25 19.957,3.34 40.848,5.58 62.61,6.41 8.035,-32.91 6.957,-66.32 -3.41,-98.63 -9.403,-29.29 -25.485,-54.82 -43.285,-75.54 v 0"
             style="fill:#e8e7e6;fill-opacity:1;fill-rule:nonzero;stroke:none"
             id="path74" />
          <path
             d="m 525.555,3840.23 c -7.961,5.8 -16.387,11.47 -25.301,17.01 -9.074,5.63 -17.984,10.93 -26.734,15.92 v 0 c 33.351,43.65 69.085,128.16 65.476,204.11 20.246,-2.72 41.063,-6.73 62.438,-12.23 -0.231,-84.07 -35.715,-170.59 -75.879,-224.81 v 0"
             style="fill:#e8e7e6;fill-opacity:1;fill-rule:nonzero;stroke:none"
             id="path76" />
          <path
             d="m 617.262,3741.82 c -9.957,16.57 -22.16,33.32 -37.086,49.74 v 0 c 34.547,22.56 72.215,58.75 100.707,103.93 16.328,25.89 39.742,71.85 37.648,119.8 20.367,-13.04 39.996,-27.97 58.742,-44.15 -6.23,-35.59 -20.964,-72.44 -43.871,-108.76 -30.683,-48.67 -73.015,-91.65 -116.14,-120.56 v 0"
             style="fill:#e8e7e6;fill-opacity:1;fill-rule:nonzero;stroke:none"
             id="path78" />
        </g>
      </g>
      <path
         d="m 1546.8228,2893.964 c -5.778,65.49 -8.754,166.96 10.757,274.12 13.809,75.84 38.879,154.54 82.192,225.35 105.638,172.7 291.108,203.26 418.148,203.26 27.87,0 52.95,-1.47 73.73,-3.24 -2.12,-16.75 0.4,-34.28 8.27,-50.62 0.24,-0.5 0.48,-0.99 0.73,-1.49 -30.22,-10.03 -82.12,-33.41 -131.76,-85.05 -80.78,11.4 -138.63,57.41 -176.15,100.32 -19.38,-7.93 -38.51,-17.32 -57.16,-28.41 39.27,-48.44 101.39,-104.23 189.75,-126.62 -11.36,-17.24 -22.15,-36.48 -32.01,-57.92 -4.34,-0.25 -8.82,-0.38 -13.4,-0.38 -76,0 -182.3,34.05 -256.668,84.6 -8.191,-10.81 -16.035,-22.27 -23.48,-34.45 -3.574,-5.84 -7.032,-11.75 -10.36,-17.69 79.914,-54.31 190.488,-92.78 281.398,-94.62 -1.53,-6.21 -2.92,-12.64 -4.2,-19.23 -25.92,-19.05 -65.75,-29.39 -114.45,-29.41 h -0.17 c -77.113,0 -154.402,23.95 -203.542,52.52 -7.188,-20.13 -13.34,-40.46 -18.575,-60.76 61.688,-32.57 145.192,-53.85 222.127,-53.85 h 0.18 c 39.88,0.01 75.25,5.76 105.19,16.92 -6.99,-100.8 2.89,-217.36 10.89,-288.09 -48.79,4.02 -100.74,6.1 -153.43,6.1 -69.902,0 -141.132,-3.67 -208.007,-11.36"
         style="fill:#e8e7e6;fill-opacity:1;fill-rule:nonzero;stroke:none"
         id="path80" />
      <g
         id="g82"
         transform="translate(731.00978,-755.88598)">
        <g
           id="g84"
           clip-path="url(#clipPath88-3)">
          <path
             d="m 1061.17,3926.28 h -0.18 c -76.935,0 -160.439,21.28 -222.127,53.85 5.235,20.3 11.387,40.63 18.575,60.76 49.14,-28.57 126.429,-52.52 203.542,-52.52 h 0.17 c 48.7,0.02 88.53,10.36 114.45,29.41 v 0 c -3.53,-18.3 -6.13,-37.95 -7.96,-58.42 -0.48,-5.34 -0.9,-10.72 -1.28,-16.16 v 0 c -29.94,-11.16 -65.31,-16.91 -105.19,-16.92"
             style="fill:#e8e7e6;fill-opacity:1;fill-rule:nonzero;stroke:none"
             id="path90" />
          <path
             d="m 1179.8,4037.01 v 0 c -90.91,1.84 -201.484,40.31 -281.398,94.62 3.328,5.94 6.786,11.85 10.36,17.69 7.445,12.18 15.289,23.64 23.48,34.45 74.368,-50.55 180.668,-84.6 256.668,-84.6 4.58,0 9.06,0.13 13.4,0.38 v 0 c -4.24,-9.23 -8.31,-18.87 -12.17,-28.93 -3.97,-10.32 -7.4,-21.58 -10.34,-33.61"
             style="fill:#e8e7e6;fill-opacity:1;fill-rule:nonzero;stroke:none"
             id="path92" />
          <path
             d="m 1234.32,4157.47 v 0 c -88.36,22.39 -150.48,78.18 -189.75,126.62 18.65,11.09 37.78,20.48 57.16,28.41 37.52,-42.91 95.37,-88.92 176.15,-100.32 v 0 c -14.95,-15.54 -29.68,-33.64 -43.56,-54.71"
             style="fill:#e8e7e6;fill-opacity:1;fill-rule:nonzero;stroke:none"
             id="path94" />
        </g>
      </g>
      <path
         d="m 1381.7868,2700.234 -56.828,144.46 c 19.574,7.7 41.18,14.63 64.352,20.8 47.07,12.53 100.738,21.94 157.512,28.47 66.875,7.69 138.105,11.36 208.007,11.36 52.69,0 104.64,-2.08 153.43,-6.1 66.95,-5.52 127.92,-14.68 176.75,-27.11 26.9,-6.84 50.07,-14.66 68.53,-23.43 l -66.53,-140.24 c -53.71,25.47 -189.09,41.43 -332.89,41.43 -137.829,0 -283.383,-14.65 -372.333,-49.64"
         style="fill:#e8e7e6;fill-opacity:1;fill-rule:nonzero;stroke:none"
         id="path96" />
      <path
         d="m 861.69378,3093.314 c -4.34,0 -8.727,0.32 -13.149,0.96 -49.4881,7.2 -83.7889,53.15 -76.578,102.64 6.5547,45.06 45.2539,77.53 89.481,77.53 4.339,0 8.73,-0.31 13.152,-0.96 21.359,-3.1 39.887,-13.43 53.469,-28.14 12.668,-13.72 21.031,-31.26 23.386,-50.32 0.969,-7.86 0.918,-15.97 -0.273,-24.18 -6.559,-45.06 -45.254,-77.53 -89.488,-77.53 m -83.016,54.34 c 6.25,-14.29 16.0664,-26.85 28.5976,-36.24 31.5784,0.93 57.4534,17.84 78.3754,35.04 1.316,-0.39 2.578,-0.79 3.957,-0.98 1.402,-0.21 2.797,-0.31 4.175,-0.31 13.985,0 26.223,10.25 28.286,24.5 2.281,15.66 -8.555,30.18 -24.227,32.47 -1.398,0.2 -2.789,0.3 -4.156,0.3 -13.988,0 -26.215,-10.26 -28.289,-24.52 -0.395,-2.72 -0.285,-5.37 0.082,-7.96 -18.242,-15.01 -37.5784,-27.42 -60.676,-27.42 -8.1953,0 -16.8633,1.56 -26.125,5.12"
         style="fill:#e8e7e6;fill-opacity:1;fill-rule:nonzero;stroke:none"
         id="path98" />
      <path
         d="m 807.27538,3111.414 c -12.5312,9.39 -22.3476,21.95 -28.5976,36.24 9.2617,-3.56 17.9297,-5.12 26.125,-5.12 23.0976,0 42.434,12.41 60.676,27.42 -0.367,2.59 -0.477,5.24 -0.082,7.96 2.074,14.26 14.301,24.52 28.289,24.52 1.367,0 2.758,-0.1 4.156,-0.3 15.672,-2.29 26.508,-16.81 24.227,-32.47 -2.063,-14.25 -14.301,-24.5 -28.286,-24.5 -1.378,0 -2.773,0.1 -4.175,0.31 -1.379,0.19 -2.641,0.59 -3.957,0.98 -20.922,-17.2 -46.797,-34.11 -78.3754,-35.04"
         style="fill:#e8e7e6;fill-opacity:1;fill-rule:nonzero;stroke:none"
         id="path100" />
      <path
         d="m 2521.3198,3144.764 c -20.93,0 -41.96,7.21 -59.07,21.95 -17.1,14.74 -27.34,34.49 -30.43,55.21 -2.86,19.14 0.39,39.1 10,56.7 3.01,5.53 6.66,10.83 10.94,15.79 17.91,20.79 43.21,31.45 68.65,31.45 20.94,0 41.97,-7.22 59.07,-21.95 37.88,-32.64 42.12,-89.83 9.47,-127.71 -17.89,-20.78 -43.19,-31.44 -68.63,-31.44 m 25.83,140.9 c -8.05,0 -16.05,-3.37 -21.7,-9.95 -10.32,-11.98 -8.98,-30.06 3.02,-40.39 2.06,-1.78 4.37,-3.1 6.75,-4.19 3.88,-31.77 2.65,-62.66 -27.79,-85.21 4.68,-0.72 9.4,-1.08 14.12,-1.08 10.81,0 21.61,1.9 31.81,5.75 16.18,27.15 15.78,58.06 12.51,84.94 1.01,0.89 2.07,1.74 2.96,2.81 10.33,11.97 8.98,30.06 -2.99,40.37 -5.41,4.66 -12.07,6.95 -18.69,6.95"
         style="fill:#e8e7e6;fill-opacity:1;fill-rule:nonzero;stroke:none"
         id="path102" />
      <path
         d="m 2521.5498,3144.844 c -4.72,0 -9.44,0.36 -14.12,1.08 30.44,22.55 31.67,53.44 27.79,85.21 -2.38,1.09 -4.69,2.41 -6.75,4.19 -12,10.33 -13.34,28.41 -3.02,40.39 5.65,6.58 13.65,9.95 21.7,9.95 6.62,0 13.28,-2.29 18.69,-6.95 11.97,-10.31 13.32,-28.4 2.99,-40.37 -0.89,-1.07 -1.95,-1.92 -2.96,-2.81 3.27,-26.88 3.67,-57.79 -12.51,-84.94 -10.2,-3.85 -21,-5.75 -31.81,-5.75"
         style="fill:#e8e7e6;fill-opacity:1;fill-rule:nonzero;stroke:none"
         id="path104" />
      <path
         d="m 2221.5498,3491.574 c -33.17,0 -65.03,18.31 -80.9,49.77 -0.25,0.5 -0.49,0.99 -0.73,1.49 -7.87,16.34 -10.39,33.87 -8.27,50.62 3.74,29.43 21.83,56.43 50.54,70.27 12.66,6.1 26.05,8.99 39.23,8.99 33.69,0 66.05,-18.89 81.63,-51.28 6.81,-14.12 9.63,-29.14 8.89,-43.77 -18.45,25.66 -46.94,37.64 -72.88,45.37 -0.41,1.29 -0.79,2.58 -1.38,3.83 -4.95,10.24 -15.18,16.21 -25.84,16.21 -4.16,0 -8.39,-0.91 -12.39,-2.83 -14.26,-6.87 -20.24,-23.99 -13.38,-38.24 4.95,-10.24 15.17,-16.21 25.82,-16.21 4.17,0 8.4,0.92 12.42,2.85 2.46,1.19 4.59,2.77 6.54,4.52 30.69,-9.11 58.52,-22.55 67.03,-59.49 7.12,11.26 11.75,23.96 13.46,37.16 -3.72,-29.43 -21.82,-56.43 -50.54,-70.26 -12.67,-6.11 -26.06,-9 -39.25,-9"
         style="fill:#e8e7e6;fill-opacity:1;fill-rule:nonzero;stroke:none"
         id="path106" />
      <path
         d="m 2297.8798,3533.674 c -8.51,36.94 -36.34,50.38 -67.03,59.49 -1.95,-1.75 -4.08,-3.33 -6.54,-4.52 -4.02,-1.93 -8.25,-2.85 -12.42,-2.85 -10.65,0 -20.87,5.97 -25.82,16.21 -6.86,14.25 -0.88,31.37 13.38,38.24 4,1.92 8.23,2.83 12.39,2.83 10.66,0 20.89,-5.97 25.84,-16.21 0.59,-1.25 0.97,-2.54 1.38,-3.83 25.94,-7.73 54.43,-19.71 72.88,-45.37 0.01,-0.01 0.01,-0.01 0.02,-0.02 -0.12,-2.28 -0.33,-4.55 -0.62,-6.81 -1.71,-13.2 -6.34,-25.9 -13.46,-37.16"
         style="fill:#e8e7e6;fill-opacity:1;fill-rule:nonzero;stroke:none"
         id="path108" />
      <path
         d="m 2411.3798,3315.384 c -72.19,25 -446.91,144.87 -694.479,-226.96 -247.532,-371.85 153.449,-239.32 153.449,-239.32 l 170.87,6.51 c 0,0 -5.7,212.6 144.22,308.44 149.88,95.84 242.85,105.86 242.85,105.86 l -16.91,45.47"
         style="fill:#ca1e25;fill-opacity:1;fill-rule:nonzero;stroke:none"
         id="path110" />
      <g
         id="g112"
         transform="translate(731.00978,-755.88598)">
        <g
           id="g114"
           clip-path="url(#clipPath118-6)">
          <path
             d="m 1553.12,3880.79 c -118.87,78.73 -116.11,215.08 -76.18,286.75 l 54.24,-30.22 c -22.24,-39.93 -37.77,-142.51 56.23,-204.76 l -34.29,-51.77"
             style="fill:#f0b30d;fill-opacity:1;fill-rule:nonzero;stroke:none"
             id="path120" />
          <path
             d="m 1460.21,3793.65 c -155.92,62.4 -146.72,313.77 -126.26,371.4 l 58.51,-20.77 c -13.47,-37.95 -22.5,-247.63 90.82,-292.98 l -23.07,-57.65"
             style="fill:#f0b30d;fill-opacity:1;fill-rule:nonzero;stroke:none"
             id="path122" />
          <path
             d="m 1394.98,3713.57 c -205.04,53.09 -223.41,373.38 -223.57,376.6 l 62.01,3.11 c 3.61,-71.95 43.87,-285.1 177.13,-319.61 l -15.57,-60.1"
             style="fill:#f0b30d;fill-opacity:1;fill-rule:nonzero;stroke:none"
             id="path124" />
        </g>
      </g>
      <path
         d="m 870.73678,3274.244 c 83.925,55.76 246.93302,134.02 458.96802,63.96 212.051,-70.06 367.086,-388.04 367.086,-388.04 l -45.566,-79.64 -301.547,-24.13 c 0,0 28.617,178.86 -158.414,294.96 -187.031,116.09 -305.80502,91.54 -305.80502,91.54 l -14.722,41.35"
         style="fill:#5a2689;fill-opacity:1;fill-rule:nonzero;stroke:none"
         id="path126" />
      <g
         id="g128"
         transform="translate(731.00978,-755.88598)">
        <g
           id="g130"
           clip-path="url(#clipPath134-9)">
          <path
             d="m 300.336,3893.96 -26.902,55.95 c 18.25,8.78 61.035,42.78 76.785,91.88 10.617,33.06 6.578,67 -11.996,100.87 l 54.445,29.86 c 26.707,-48.71 32.473,-100.48 16.68,-149.71 -21.285,-66.33 -76.852,-113.4 -109.012,-128.85"
             style="fill:#f0b30d;fill-opacity:1;fill-rule:nonzero;stroke:none"
             id="path136" />
          <path
             d="m 432.758,3830.55 -27.93,55.46 c 42.754,21.53 120.738,173.38 85.547,279.87 l 58.957,19.48 c 45.91,-138.91 -48.836,-320.69 -116.574,-354.81"
             style="fill:#f0b30d;fill-opacity:1;fill-rule:nonzero;stroke:none"
             id="path138" />
          <path
             d="m 489.203,3744.66 -8.035,61.57 c 41.891,5.47 113.086,55.31 159.715,129.26 20.109,31.89 50.965,94.2 31.683,153.19 l 59.028,19.29 c 20.125,-61.61 6.566,-134.62 -38.192,-205.59 -52.175,-82.76 -138.054,-149.09 -204.199,-157.72"
             style="fill:#f0b30d;fill-opacity:1;fill-rule:nonzero;stroke:none"
             id="path140" />
        </g>
      </g>
      <path
         d="m 2132.8398,3629.224 c -82.3,9.37 -385.56,45.37 -533.068,-195.79 -147.5,-241.16 -83.449,-573.7 -83.449,-573.7 l 360.307,14.59 c 0,0 -51.56,334.53 4.52,480.41 79.92,207.99 245.72,233.54 245.72,233.54 l 5.97,40.95"
         style="fill:#388290;fill-opacity:1;fill-rule:nonzero;stroke:none"
         id="path142" />
      <g
         id="g144"
         transform="translate(731.00978,-755.88598)">
        <g
           id="g146"
           clip-path="url(#clipPath150-2)">
          <path
             d="m 1020.99,3966.28 c -110.076,0 -233.619,43.58 -287.435,101.42 l 45.461,42.29 c 36.543,-39.27 139.418,-81.62 241.964,-81.62 h 0.17 c 57.69,0.02 102.92,14.53 127.36,40.83 l 45.49,-42.25 c -36.83,-39.66 -96.59,-60.64 -172.83,-60.67 h -0.18"
             style="fill:#f0b30d;fill-opacity:1;fill-rule:nonzero;stroke:none"
             id="path152" />
          <path
             d="m 1146.53,4076.95 c -114.44,0 -262.757,60.21 -341.182,137.69 l 43.632,44.18 c 91.774,-90.66 299.01,-149.08 369.6,-104.19 l 33.32,-52.4 c -27.55,-17.52 -64.28,-25.28 -105.37,-25.28"
             style="fill:#f0b30d;fill-opacity:1;fill-rule:nonzero;stroke:none"
             id="path154" />
          <path
             d="m 1271.44,4187.45 c -190.82,2.69 -287.94,158.49 -313.159,206.18 l 54.889,29.03 c 21.19,-40.05 102.47,-170.91 259.14,-173.12 l -0.87,-62.09"
             style="fill:#f0b30d;fill-opacity:1;fill-rule:nonzero;stroke:none"
             id="path156" />
        </g>
      </g>
      <path
         d="m 1341.7868,2740.244 -56.828,144.45 c 216.543,85.18 678.691,75.1 828.581,4 l -66.53,-140.25 c -105.18,49.88 -523.465,63.28 -705.223,-8.2"
         style="fill:#f0b30d;fill-opacity:1;fill-rule:nonzero;stroke:none"
         id="path158" />
      <path
         d="m 911.18178,3210.844 c -7.203,-49.48 -53.152,-83.78 -102.6368,-76.57 -49.4883,7.2 -83.78911,53.15 -76.57817,102.64 7.19922,49.49 53.14847,83.77 102.63297,76.57 49.492,-7.19 83.773,-53.16 76.582,-102.64"
         style="fill:#f0b30d;fill-opacity:1;fill-rule:nonzero;stroke:none"
         id="path160" />
      <path
         d="m 857.84178,3242.134 c -15.648,2.27 -30.1679,-8.57 -32.4453,-24.22 -0.3945,-2.72 -0.2851,-5.37 0.0821,-7.96 -24.7188,-20.34 -51.4258,-35.89 -86.80083,-22.3 6.24613,-14.29 16.06643,-26.85 28.59763,-36.24 31.5782,0.93 57.4571,17.84 78.3754,35.04 1.316,-0.39 2.578,-0.79 3.957,-0.98 15.648,-2.29 30.195,8.54 32.461,24.19 2.281,15.66 -8.555,30.18 -24.227,32.47"
         style="fill:#5a2689;fill-opacity:1;fill-rule:nonzero;stroke:none"
         id="path162" />
      <path
         d="m 2540.4798,3343.914 c 37.88,-32.64 42.12,-89.83 9.48,-127.71 -32.63,-37.88 -89.81,-42.13 -127.71,-9.49 -37.85,32.64 -42.13,89.83 -9.49,127.7 32.65,37.9 89.84,42.14 127.72,9.5"
         style="fill:#f0b30d;fill-opacity:1;fill-rule:nonzero;stroke:none"
         id="path164" />
      <path
         d="m 2485.4498,3315.714 c -10.32,-11.98 -8.98,-30.06 3.02,-40.39 2.06,-1.78 4.37,-3.1 6.75,-4.19 3.88,-31.77 2.66,-62.66 -27.79,-85.21 15.4,-2.38 31.28,-0.86 45.93,4.67 16.18,27.15 15.78,58.06 12.51,84.94 1.01,0.89 2.07,1.74 2.96,2.81 10.33,11.97 8.98,30.06 -2.99,40.37 -11.98,10.33 -30.08,8.99 -40.39,-3"
         style="fill:#5a2689;fill-opacity:1;fill-rule:nonzero;stroke:none"
         id="path166" />
      <path
         d="m 2142.1898,3703.724 c 45.04,21.71 99.18,2.77 120.86,-42.29 21.72,-45.04 2.81,-99.17 -42.25,-120.86 -45.07,-21.72 -99.16,-2.79 -120.88,42.26 -21.69,45.05 -2.78,99.17 42.27,120.89"
         style="fill:#f0b30d;fill-opacity:1;fill-rule:nonzero;stroke:none"
         id="path168" />
      <path
         d="m 2146.0698,3642.004 c 6.89,-14.25 23.99,-20.23 38.24,-13.36 2.46,1.19 4.59,2.77 6.54,4.52 30.69,-9.11 58.52,-22.55 67.04,-59.49 8.33,13.19 13.26,28.34 14.07,43.97 -18.45,25.68 -46.95,37.66 -72.9,45.39 -0.41,1.29 -0.79,2.58 -1.38,3.83 -6.88,14.24 -23.99,20.23 -38.23,13.38 -14.26,-6.87 -20.24,-23.99 -13.38,-38.24"
         style="fill:#5a2689;fill-opacity:1;fill-rule:nonzero;stroke:none"
         id="path170" />
    </g>
  </g>
</svg>
